<mxfile host="app.diagrams.net" modified="2022-05-22T17:26:12.509Z" agent="5.0 (Windows NT 10.0; Win64; x64) AppleWebKit/537.36 (KHTML, like Gecko) Chrome/101.0.4951.67 Safari/537.36" etag="d-NEP9Gq5vkz0OPmxU3O" version="18.0.6" type="github">
  <diagram id="C5RBs43oDa-KdzZeNtuy" name="Page-1">
    <mxGraphModel dx="2062" dy="1126" grid="1" gridSize="10" guides="1" tooltips="1" connect="1" arrows="1" fold="1" page="1" pageScale="1" pageWidth="827" pageHeight="1169" math="0" shadow="0">
      <root>
        <mxCell id="WIyWlLk6GJQsqaUBKTNV-0" />
        <mxCell id="WIyWlLk6GJQsqaUBKTNV-1" parent="WIyWlLk6GJQsqaUBKTNV-0" />
        <mxCell id="zcikaKIgowC9FCyK3SAd-4" value="" style="edgeStyle=orthogonalEdgeStyle;rounded=0;orthogonalLoop=1;jettySize=auto;html=1;" edge="1" parent="WIyWlLk6GJQsqaUBKTNV-1" source="zcikaKIgowC9FCyK3SAd-0" target="zcikaKIgowC9FCyK3SAd-3">
          <mxGeometry relative="1" as="geometry" />
        </mxCell>
        <mxCell id="zcikaKIgowC9FCyK3SAd-0" value="Start" style="rounded=1;whiteSpace=wrap;html=1;" vertex="1" parent="WIyWlLk6GJQsqaUBKTNV-1">
          <mxGeometry x="350" y="70" width="120" height="60" as="geometry" />
        </mxCell>
        <mxCell id="zcikaKIgowC9FCyK3SAd-6" value="" style="edgeStyle=orthogonalEdgeStyle;rounded=0;orthogonalLoop=1;jettySize=auto;html=1;" edge="1" parent="WIyWlLk6GJQsqaUBKTNV-1" source="zcikaKIgowC9FCyK3SAd-3" target="zcikaKIgowC9FCyK3SAd-5">
          <mxGeometry relative="1" as="geometry" />
        </mxCell>
        <mxCell id="zcikaKIgowC9FCyK3SAd-8" value="" style="edgeStyle=orthogonalEdgeStyle;rounded=0;orthogonalLoop=1;jettySize=auto;html=1;" edge="1" parent="WIyWlLk6GJQsqaUBKTNV-1" source="zcikaKIgowC9FCyK3SAd-3" target="zcikaKIgowC9FCyK3SAd-7">
          <mxGeometry relative="1" as="geometry" />
        </mxCell>
        <mxCell id="zcikaKIgowC9FCyK3SAd-9" value="" style="edgeStyle=orthogonalEdgeStyle;rounded=0;orthogonalLoop=1;jettySize=auto;html=1;" edge="1" parent="WIyWlLk6GJQsqaUBKTNV-1" source="zcikaKIgowC9FCyK3SAd-3" target="zcikaKIgowC9FCyK3SAd-7">
          <mxGeometry relative="1" as="geometry" />
        </mxCell>
        <mxCell id="zcikaKIgowC9FCyK3SAd-11" value="" style="edgeStyle=orthogonalEdgeStyle;rounded=0;orthogonalLoop=1;jettySize=auto;html=1;" edge="1" parent="WIyWlLk6GJQsqaUBKTNV-1" source="zcikaKIgowC9FCyK3SAd-3" target="zcikaKIgowC9FCyK3SAd-10">
          <mxGeometry relative="1" as="geometry" />
        </mxCell>
        <mxCell id="zcikaKIgowC9FCyK3SAd-12" value="" style="edgeStyle=orthogonalEdgeStyle;rounded=0;orthogonalLoop=1;jettySize=auto;html=1;" edge="1" parent="WIyWlLk6GJQsqaUBKTNV-1" source="zcikaKIgowC9FCyK3SAd-3" target="zcikaKIgowC9FCyK3SAd-10">
          <mxGeometry relative="1" as="geometry" />
        </mxCell>
        <mxCell id="zcikaKIgowC9FCyK3SAd-14" value="" style="edgeStyle=orthogonalEdgeStyle;rounded=0;orthogonalLoop=1;jettySize=auto;html=1;" edge="1" parent="WIyWlLk6GJQsqaUBKTNV-1" source="zcikaKIgowC9FCyK3SAd-3" target="zcikaKIgowC9FCyK3SAd-13">
          <mxGeometry relative="1" as="geometry" />
        </mxCell>
        <mxCell id="zcikaKIgowC9FCyK3SAd-3" value="Meny" style="whiteSpace=wrap;html=1;rounded=1;" vertex="1" parent="WIyWlLk6GJQsqaUBKTNV-1">
          <mxGeometry x="380" y="210" width="60" height="40" as="geometry" />
        </mxCell>
        <mxCell id="zcikaKIgowC9FCyK3SAd-5" value="Avsluta&lt;br&gt;" style="whiteSpace=wrap;html=1;rounded=1;" vertex="1" parent="WIyWlLk6GJQsqaUBKTNV-1">
          <mxGeometry x="520" y="300" width="60" height="40" as="geometry" />
        </mxCell>
        <mxCell id="zcikaKIgowC9FCyK3SAd-16" value="" style="edgeStyle=orthogonalEdgeStyle;rounded=0;orthogonalLoop=1;jettySize=auto;html=1;" edge="1" parent="WIyWlLk6GJQsqaUBKTNV-1" source="zcikaKIgowC9FCyK3SAd-7" target="zcikaKIgowC9FCyK3SAd-15">
          <mxGeometry relative="1" as="geometry" />
        </mxCell>
        <mxCell id="zcikaKIgowC9FCyK3SAd-7" value="Skriv inlägg&lt;br&gt;" style="whiteSpace=wrap;html=1;rounded=1;" vertex="1" parent="WIyWlLk6GJQsqaUBKTNV-1">
          <mxGeometry x="300" y="280" width="60" height="60" as="geometry" />
        </mxCell>
        <mxCell id="zcikaKIgowC9FCyK3SAd-26" value="" style="edgeStyle=orthogonalEdgeStyle;rounded=0;orthogonalLoop=1;jettySize=auto;html=1;" edge="1" parent="WIyWlLk6GJQsqaUBKTNV-1" source="zcikaKIgowC9FCyK3SAd-10">
          <mxGeometry relative="1" as="geometry">
            <mxPoint x="510" y="270" as="targetPoint" />
          </mxGeometry>
        </mxCell>
        <mxCell id="zcikaKIgowC9FCyK3SAd-10" value="Skriv ut inlägg&lt;br&gt;" style="whiteSpace=wrap;html=1;rounded=1;" vertex="1" parent="WIyWlLk6GJQsqaUBKTNV-1">
          <mxGeometry x="430" y="280" width="60" height="60" as="geometry" />
        </mxCell>
        <mxCell id="zcikaKIgowC9FCyK3SAd-29" value="" style="edgeStyle=orthogonalEdgeStyle;rounded=0;orthogonalLoop=1;jettySize=auto;html=1;" edge="1" parent="WIyWlLk6GJQsqaUBKTNV-1" source="zcikaKIgowC9FCyK3SAd-13" target="zcikaKIgowC9FCyK3SAd-28">
          <mxGeometry relative="1" as="geometry" />
        </mxCell>
        <mxCell id="zcikaKIgowC9FCyK3SAd-13" value="Sök inlägg&lt;br&gt;" style="whiteSpace=wrap;html=1;rounded=1;" vertex="1" parent="WIyWlLk6GJQsqaUBKTNV-1">
          <mxGeometry x="360" y="280" width="70" height="60" as="geometry" />
        </mxCell>
        <mxCell id="zcikaKIgowC9FCyK3SAd-18" value="" style="edgeStyle=orthogonalEdgeStyle;rounded=0;orthogonalLoop=1;jettySize=auto;html=1;" edge="1" parent="WIyWlLk6GJQsqaUBKTNV-1" source="zcikaKIgowC9FCyK3SAd-15" target="zcikaKIgowC9FCyK3SAd-17">
          <mxGeometry relative="1" as="geometry" />
        </mxCell>
        <mxCell id="zcikaKIgowC9FCyK3SAd-15" value="Skriv titel&lt;br&gt;" style="whiteSpace=wrap;html=1;rounded=1;" vertex="1" parent="WIyWlLk6GJQsqaUBKTNV-1">
          <mxGeometry x="160" y="280" width="70" height="50" as="geometry" />
        </mxCell>
        <mxCell id="zcikaKIgowC9FCyK3SAd-20" value="" style="edgeStyle=orthogonalEdgeStyle;rounded=0;orthogonalLoop=1;jettySize=auto;html=1;" edge="1" parent="WIyWlLk6GJQsqaUBKTNV-1" source="zcikaKIgowC9FCyK3SAd-17">
          <mxGeometry relative="1" as="geometry">
            <mxPoint x="80" y="200" as="targetPoint" />
          </mxGeometry>
        </mxCell>
        <mxCell id="zcikaKIgowC9FCyK3SAd-17" value="Skriv inlägg&lt;br&gt;" style="whiteSpace=wrap;html=1;rounded=1;" vertex="1" parent="WIyWlLk6GJQsqaUBKTNV-1">
          <mxGeometry x="160" y="350" width="70" height="40" as="geometry" />
        </mxCell>
        <mxCell id="zcikaKIgowC9FCyK3SAd-24" value="" style="endArrow=classic;html=1;rounded=0;entryX=0;entryY=0.25;entryDx=0;entryDy=0;" edge="1" parent="WIyWlLk6GJQsqaUBKTNV-1" target="zcikaKIgowC9FCyK3SAd-3">
          <mxGeometry width="50" height="50" relative="1" as="geometry">
            <mxPoint x="80" y="200" as="sourcePoint" />
            <mxPoint x="160" y="210" as="targetPoint" />
          </mxGeometry>
        </mxCell>
        <mxCell id="zcikaKIgowC9FCyK3SAd-27" value="" style="endArrow=classic;html=1;rounded=0;" edge="1" parent="WIyWlLk6GJQsqaUBKTNV-1" target="zcikaKIgowC9FCyK3SAd-3">
          <mxGeometry width="50" height="50" relative="1" as="geometry">
            <mxPoint x="510" y="270" as="sourcePoint" />
            <mxPoint x="560" y="260" as="targetPoint" />
          </mxGeometry>
        </mxCell>
        <mxCell id="zcikaKIgowC9FCyK3SAd-32" value="" style="edgeStyle=orthogonalEdgeStyle;rounded=0;orthogonalLoop=1;jettySize=auto;html=1;" edge="1" parent="WIyWlLk6GJQsqaUBKTNV-1" source="zcikaKIgowC9FCyK3SAd-28" target="zcikaKIgowC9FCyK3SAd-31">
          <mxGeometry relative="1" as="geometry" />
        </mxCell>
        <mxCell id="zcikaKIgowC9FCyK3SAd-34" value="" style="edgeStyle=orthogonalEdgeStyle;rounded=0;orthogonalLoop=1;jettySize=auto;html=1;" edge="1" parent="WIyWlLk6GJQsqaUBKTNV-1" source="zcikaKIgowC9FCyK3SAd-28" target="zcikaKIgowC9FCyK3SAd-33">
          <mxGeometry relative="1" as="geometry" />
        </mxCell>
        <mxCell id="zcikaKIgowC9FCyK3SAd-28" value="Om sökning finns&lt;br&gt;" style="whiteSpace=wrap;html=1;rounded=1;" vertex="1" parent="WIyWlLk6GJQsqaUBKTNV-1">
          <mxGeometry x="350" y="400" width="90" height="30" as="geometry" />
        </mxCell>
        <mxCell id="zcikaKIgowC9FCyK3SAd-30" value="Spara inlägg" style="whiteSpace=wrap;html=1;rounded=1;" vertex="1" parent="WIyWlLk6GJQsqaUBKTNV-1">
          <mxGeometry x="50" y="150" width="70" height="50" as="geometry" />
        </mxCell>
        <mxCell id="zcikaKIgowC9FCyK3SAd-40" value="" style="edgeStyle=orthogonalEdgeStyle;rounded=0;orthogonalLoop=1;jettySize=auto;html=1;" edge="1" parent="WIyWlLk6GJQsqaUBKTNV-1" source="zcikaKIgowC9FCyK3SAd-31" target="zcikaKIgowC9FCyK3SAd-39">
          <mxGeometry relative="1" as="geometry" />
        </mxCell>
        <mxCell id="zcikaKIgowC9FCyK3SAd-31" value="Ja" style="whiteSpace=wrap;html=1;rounded=1;" vertex="1" parent="WIyWlLk6GJQsqaUBKTNV-1">
          <mxGeometry x="520" y="392.5" width="45" height="45" as="geometry" />
        </mxCell>
        <mxCell id="zcikaKIgowC9FCyK3SAd-33" value="Nej" style="whiteSpace=wrap;html=1;rounded=1;" vertex="1" parent="WIyWlLk6GJQsqaUBKTNV-1">
          <mxGeometry x="362.5" y="495" width="65" height="35" as="geometry" />
        </mxCell>
        <mxCell id="zcikaKIgowC9FCyK3SAd-35" value="" style="endArrow=classic;html=1;rounded=0;" edge="1" parent="WIyWlLk6GJQsqaUBKTNV-1">
          <mxGeometry width="50" height="50" relative="1" as="geometry">
            <mxPoint x="390" y="510" as="sourcePoint" />
            <mxPoint x="650" y="510" as="targetPoint" />
          </mxGeometry>
        </mxCell>
        <mxCell id="zcikaKIgowC9FCyK3SAd-36" value="" style="endArrow=classic;html=1;rounded=0;" edge="1" parent="WIyWlLk6GJQsqaUBKTNV-1">
          <mxGeometry width="50" height="50" relative="1" as="geometry">
            <mxPoint x="650" y="510" as="sourcePoint" />
            <mxPoint x="650" y="200" as="targetPoint" />
          </mxGeometry>
        </mxCell>
        <mxCell id="zcikaKIgowC9FCyK3SAd-38" value="" style="endArrow=classic;html=1;rounded=0;entryX=1;entryY=0.25;entryDx=0;entryDy=0;" edge="1" parent="WIyWlLk6GJQsqaUBKTNV-1" target="zcikaKIgowC9FCyK3SAd-3">
          <mxGeometry width="50" height="50" relative="1" as="geometry">
            <mxPoint x="650" y="210" as="sourcePoint" />
            <mxPoint x="700" y="160" as="targetPoint" />
          </mxGeometry>
        </mxCell>
        <mxCell id="zcikaKIgowC9FCyK3SAd-39" value="Skriv ut inlägg" style="whiteSpace=wrap;html=1;rounded=1;" vertex="1" parent="WIyWlLk6GJQsqaUBKTNV-1">
          <mxGeometry x="510" y="452.5" width="90" height="42.5" as="geometry" />
        </mxCell>
        <mxCell id="zcikaKIgowC9FCyK3SAd-42" value="" style="endArrow=classic;html=1;rounded=0;" edge="1" parent="WIyWlLk6GJQsqaUBKTNV-1">
          <mxGeometry width="50" height="50" relative="1" as="geometry">
            <mxPoint x="600" y="470" as="sourcePoint" />
            <mxPoint x="650" y="470" as="targetPoint" />
          </mxGeometry>
        </mxCell>
      </root>
    </mxGraphModel>
  </diagram>
</mxfile>
